<?xml version="1.0" encoding="UTF-8"?>
<svg xmlns="http://www.w3.org/2000/svg" xmlns:xlink="http://www.w3.org/1999/xlink" viewBox="0 0 850 367">
  <defs>
    <style>
      .cls-1 {
        fill: none;
      }

      .cls-2 {
        fill: #f2aae2;
      }

      .cls-3 {
        clip-path: url(#clippath-1);
      }

      .cls-4 {
        fill-rule: evenodd;
      }

      .cls-5 {
        fill: #fff;
      }

      .cls-6 {
        clip-path: url(#clippath);
      }
    </style>
    <clipPath id="clippath">
      <rect class="cls-1" x="582" y="240" width="100" height="100"/>
    </clipPath>
    <clipPath id="clippath-1">
      <rect class="cls-1" x="582" y="240" width="100" height="100"/>
    </clipPath>
  </defs>
  <g id="Hintergrund">
    <rect class="cls-5" width="850" height="367"/>
  </g>
  <g id="Logo">
    <g id="PrototypeFund_logo_dark">
      <path class="cls-4" d="M82.42,158.01h85.95l22.48,41.79-18.82,32.95-14,12.73-34.24,6.34v27.35l12.19,5.05v12.57l-14.42,11.8h-53.56v-13.02l12.19-9.97v-97.77l-12.19-5.05v-12.97l14.42-11.8ZM133.29,294.82h-49.05v-8.8l12.19-5.05v-106.02l-12.19-5.05v-9.2h82.52l21.01,39.06-17.68,30.96-33.86,7.39h-15.13v42.86l12.19,5.05v8.8ZM136.07,171.62l22.4,10.96,7.87,17.15-7.85,14.67-22.43,12.18-14.94-3.36v-48.18l14.96-3.43ZM145.67,218.29l4.1-7.57-6.91-15.06-19.07-9.34v34.75l11.86,2.66,10.02-5.45Z"/>
      <path d="M449.44,307.18h-27.52v-67.68h27.69c20.04,0,31.17,9.08,31.17,33.66s-10.51,34.11-31.34,34.02ZM435.19,295.33h12.38c12.38,0,19.06-4.81,19.06-21.99,0-16.21-5.88-21.99-19.06-21.99h-12.38v43.99Z"/>
      <path d="M354.98,307.18v-67.68h12.82l29.03,45.95v-45.95h13.36v67.68h-13.27l-28.67-44.35v44.35h-13.27Z"/>
      <path d="M315.64,308.6c-21.64,0-27.6-12.38-27.6-29.92v-39.18h13.27v34.46c0,13.45.89,22.8,14.34,22.8s14.25-9.35,14.25-22.8v-34.46h13.36v39.18c0,17.99-6.23,29.92-27.6,29.92Z"/>
      <path d="M276.36,252.68h-33.84v13.62h33.47v12.29h-33.47v28.58h-13.18v-67.68h47.02v13.18Z"/>
      <path d="M745.76,213.94h36.24v13.18h-49.42v-67.68h47.91v13.18h-34.73v13.62h31.61v12.29h-31.61v15.41Z"/>
      <path d="M675.19,227.12v-67.68h26.18c13.53,0,22.8,6.95,22.8,20.57s-9.44,20.57-23.78,20.57h-11.93v26.54h-13.27ZM688.45,188.92h10.06c6.68,0,11.75-2.4,11.75-8.73s-4.72-9.17-11.75-9.17h-10.06v17.9Z"/>
      <path d="M629.63,227.12v-23.6l-23.51-44.08h14.78l15.4,32.15,15.32-32.15h14.78l-23.51,44.08v23.6h-13.27Z"/>
      <path d="M601.5,172.62h-20.48v54.5h-13.27v-54.5h-20.48v-13.18h54.23v13.18Z"/>
      <path d="M509.48,228.54c-21.64,0-34.11-15.32-34.11-35.26s12.47-35.26,34.11-35.26,34.02,15.32,34.02,35.26-12.47,35.26-34.02,35.26ZM509.39,216.7c12.82,0,19.77-11.13,19.77-23.42s-6.95-23.42-19.77-23.42-19.77,11.13-19.77,23.42,6.95,23.42,19.77,23.42Z"/>
      <path d="M471.66,172.62h-20.48v54.5h-13.27v-54.5h-20.48v-13.18h54.23v13.18Z"/>
      <path d="M379.65,228.54c-21.64,0-34.11-15.32-34.11-35.26s12.47-35.26,34.11-35.26,34.02,15.32,34.02,35.26-12.47,35.26-34.02,35.26ZM379.56,216.7c12.82,0,19.77-11.13,19.77-23.42s-6.95-23.42-19.77-23.42-19.77,11.13-19.77,23.42,6.95,23.42,19.77,23.42Z"/>
      <path d="M288.04,227.12v-67.68h25.38c14.25,0,23.6,6.77,23.6,19.68,0,11.93-8.46,18.08-20.84,19.32l24.67,28.67h-16.21l-23.33-27.69v27.69h-13.27ZM301.31,188.12h10.69c5.61,0,11.04-2.32,11.04-8.37s-4.72-8.73-11.67-8.73h-10.06v17.1Z"/>
      <path d="M229.34,227.12v-67.68h26.18c13.54,0,22.8,6.95,22.8,20.57s-9.44,20.57-23.78,20.57h-11.93v26.54h-13.27ZM242.61,188.92h10.06c6.68,0,11.75-2.4,11.75-8.73s-4.72-9.17-11.75-9.17h-10.06v17.9Z"/>
    </g>
    <g>
      <rect class="cls-1" x="68" y="77.91" width="625.12" height="81"/>
      <path d="M83.02,112.09c-2.34,0-4.31-.32-5.93-.96-1.62-.64-2.94-1.5-3.98-2.59-1.04-1.09-1.83-2.3-2.38-3.62-.54-1.33-.9-2.68-1.06-4.06h7.49c.22,1.18.62,2.14,1.2,2.88.58.74,1.27,1.27,2.09,1.61s1.67.5,2.57.5c.99,0,1.87-.13,2.64-.38.77-.26,1.38-.62,1.85-1.1s.7-1.07.7-1.78c0-1.06-.31-1.89-.94-2.5-.62-.61-1.46-1.1-2.5-1.46-1.04-.37-2.18-.71-3.41-1.03-1.23-.32-2.46-.7-3.7-1.13-1.23-.43-2.37-1.01-3.41-1.73-1.04-.72-1.87-1.67-2.5-2.86-.62-1.18-.94-2.7-.94-4.56,0-1.63.43-3.21,1.3-4.73.86-1.52,2.2-2.78,4.01-3.77,1.81-.99,4.12-1.49,6.94-1.49,2.14,0,3.98.31,5.5.94,1.52.62,2.77,1.43,3.74,2.42.97.99,1.7,2.06,2.18,3.22s.75,2.27.82,3.36h-7.34c-.13-.8-.41-1.47-.84-2.02-.43-.54-.99-.96-1.68-1.25-.69-.29-1.48-.43-2.38-.43-.71,0-1.43.1-2.18.29-.75.19-1.39.54-1.92,1.03-.53.5-.79,1.22-.79,2.18,0,.83.31,1.51.94,2.04.62.53,1.46.97,2.5,1.32,1.04.35,2.18.7,3.43,1.03s2.49.74,3.72,1.22,2.37,1.1,3.41,1.85c1.04.75,1.87,1.72,2.5,2.9.62,1.18.94,2.67.94,4.46,0,2.18-.52,4.02-1.56,5.54-1.04,1.52-2.5,2.67-4.37,3.46s-4.09,1.18-6.65,1.18Z"/>
      <path d="M114.18,112.09c-2.75,0-5.15-.56-7.2-1.68s-3.62-2.71-4.73-4.78c-1.1-2.06-1.66-4.5-1.66-7.32v-20.45h7.01v20.45c0,2.18.52,3.98,1.56,5.4,1.04,1.42,2.65,2.14,4.82,2.14,1.41,0,2.58-.33,3.53-.98.94-.66,1.66-1.55,2.14-2.69.48-1.14.72-2.42.72-3.86v-20.45h7.01v20.45c0,4.26-1.14,7.62-3.43,10.08-2.29,2.46-5.54,3.7-9.77,3.7Z"/>
      <path d="M134.96,111.56v-33.7h14.4c2.14,0,4.03.46,5.66,1.39,1.63.93,2.92,2.24,3.86,3.94.94,1.7,1.42,3.7,1.42,6,0,2.05-.44,3.93-1.32,5.64-.88,1.71-2.14,3.07-3.79,4.08-1.65,1.01-3.62,1.51-5.93,1.51h-7.2v11.14h-7.1ZM141.97,94.37h6.19c1.54,0,2.71-.54,3.53-1.61.82-1.07,1.22-2.3,1.22-3.67s-.42-2.66-1.25-3.67c-.83-1.01-2-1.51-3.5-1.51h-6.19v10.46Z"/>
      <path d="M165.58,111.56v-33.7h14.4c2.14,0,4.03.46,5.66,1.39,1.63.93,2.92,2.24,3.86,3.94.94,1.7,1.42,3.7,1.42,6,0,2.05-.44,3.93-1.32,5.64-.88,1.71-2.14,3.07-3.79,4.08-1.65,1.01-3.62,1.51-5.93,1.51h-7.2v11.14h-7.1ZM172.59,94.37h6.19c1.54,0,2.71-.54,3.53-1.61.82-1.07,1.22-2.3,1.22-3.67s-.42-2.66-1.25-3.67c-.83-1.01-2-1.51-3.5-1.51h-6.19v10.46Z"/>
      <path d="M210.12,112.04c-2.69,0-5.03-.44-7.03-1.32-2-.88-3.66-2.11-4.97-3.7-1.31-1.58-2.3-3.43-2.95-5.54-.66-2.11-.98-4.38-.98-6.82s.33-4.7.98-6.82c.66-2.11,1.64-3.96,2.95-5.54,1.31-1.58,2.97-2.82,4.97-3.7,2-.88,4.34-1.32,7.03-1.32s5.02.44,7.01,1.32c1.98.88,3.63,2.11,4.94,3.7s2.29,3.43,2.93,5.54c.64,2.11.96,4.38.96,6.82s-.32,4.7-.96,6.82c-.64,2.11-1.62,3.96-2.93,5.54s-2.96,2.82-4.94,3.7-4.32,1.32-7.01,1.32ZM210.12,105.99c1.95,0,3.55-.42,4.8-1.27,1.25-.85,2.17-2.12,2.76-3.82.59-1.7.89-3.78.89-6.24s-.3-4.58-.89-6.26c-.59-1.68-1.51-2.94-2.76-3.79-1.25-.85-2.85-1.27-4.8-1.27-1.82,0-3.38.42-4.66,1.27-1.28.85-2.25,2.11-2.9,3.79-.66,1.68-.98,3.77-.98,6.26s.33,4.54.98,6.24c.66,1.7,1.62,2.97,2.9,3.82,1.28.85,2.83,1.27,4.66,1.27Z"/>
      <path d="M232.59,111.56v-33.7h14.4c2.14,0,4.03.41,5.66,1.22,1.63.82,2.92,2.02,3.86,3.62.94,1.6,1.42,3.55,1.42,5.86,0,2.18-.44,4.09-1.32,5.74-.88,1.65-2.14,2.92-3.79,3.82-1.65.9-3.62,1.34-5.93,1.34h-7.2v12.1h-7.1ZM239.6,93.41h6.19c1.02,0,1.89-.18,2.59-.53s1.24-.9,1.61-1.63c.37-.74.55-1.66.55-2.78,0-1.28-.42-2.36-1.25-3.24-.83-.88-2-1.32-3.5-1.32h-6.19v9.5ZM251.98,111.51l-7.87-12.91,7.63-.67,8.54,13.58h-8.3Z"/>
      <path d="M271.08,111.51v-27.55h-8.78v-6.05h24.77v6.05h-8.98v27.55h-7.01Z"/>
      <path d="M292.35,111.51v-33.6h21.94v6.05h-14.93v7.25h12.48v6.05h-12.48v8.21h14.93v6.05h-21.94Z"/>
      <path d="M320.62,111.51v-33.6h11.9c3.68,0,6.71.7,9.1,2.11,2.38,1.41,4.16,3.37,5.33,5.88,1.17,2.51,1.75,5.46,1.75,8.86s-.58,6.25-1.75,8.76c-1.17,2.51-2.94,4.47-5.33,5.88-2.38,1.41-5.42,2.11-9.1,2.11h-11.9ZM327.63,105.46h5.04c1.89,0,3.47-.37,4.75-1.1,1.28-.74,2.25-1.9,2.9-3.48.66-1.58.98-3.64.98-6.17s-.33-4.58-.98-6.14c-.66-1.57-1.62-2.73-2.9-3.48-1.28-.75-2.86-1.13-4.75-1.13h-5.04v21.5Z"/>
      <path d="M370.63,111.51v-33.65h13.68c2.37,0,4.35.39,5.95,1.18,1.6.78,2.8,1.84,3.6,3.17.8,1.33,1.2,2.81,1.2,4.44,0,2.02-.42,3.62-1.25,4.82s-1.79,2.07-2.88,2.62c1.89.51,3.36,1.44,4.42,2.78,1.05,1.34,1.58,2.96,1.58,4.85,0,3.04-1.02,5.43-3.05,7.18-2.03,1.74-5.1,2.62-9.19,2.62h-14.06ZM377.64,91.4h5.86c1.31,0,2.34-.3,3.1-.91.75-.61,1.13-1.66,1.13-3.17,0-1.09-.38-1.93-1.13-2.52-.75-.59-1.8-.89-3.14-.89h-5.81v7.49ZM377.64,105.46h6.1c1.86,0,3.29-.29,4.3-.86,1.01-.58,1.51-1.65,1.51-3.22,0-1.28-.49-2.26-1.46-2.93-.98-.67-2.26-1.01-3.86-1.01h-6.58v8.02Z"/>
      <path d="M410.09,111.51l.14-13.87-12.14-19.73h7.73l7.78,13.87,7.87-13.87h7.58l-12.05,19.73.14,13.87h-7.06Z"/>
      <path d="M437.07,95.72c-1.15,0-2.14-.41-2.95-1.22-.82-.82-1.22-1.8-1.22-2.95s.41-2.08,1.22-2.88c.82-.8,1.8-1.2,2.95-1.2s2.09.4,2.9,1.2c.82.8,1.22,1.76,1.22,2.88s-.41,2.14-1.22,2.95-1.78,1.22-2.9,1.22ZM437.07,112.09c-1.15,0-2.14-.41-2.95-1.22-.82-.82-1.22-1.8-1.22-2.95s.41-2.08,1.22-2.88c.82-.8,1.8-1.2,2.95-1.2s2.09.4,2.9,1.2c.82.8,1.22,1.76,1.22,2.88s-.41,2.14-1.22,2.95-1.78,1.22-2.9,1.22Z"/>
    </g>
  </g>
  <g id="Pattern">
    <g id="shape-08">
      <path class="cls-2" d="M682,40h17v17h-17v-17Z"/>
      <path class="cls-2" d="M765,123h17v17h-17v-17Z"/>
      <path class="cls-2" d="M699,57h16v16h-16v-16Z"/>
      <path class="cls-2" d="M749,107h16v16h-16v-16Z"/>
      <path class="cls-2" d="M749,40h16v17h-16v-17Z"/>
      <path class="cls-2" d="M682,107h17v16h-17v-16Z"/>
      <path class="cls-2" d="M765,57h17v16h-17v-16Z"/>
      <path class="cls-2" d="M699,123h16v17h-16v-17Z"/>
    </g>
    <g id="shape-09">
      <g class="cls-6">
        <g class="cls-3">
          <path class="cls-2" d="M623,253c0,2.21-1.79,4-4,4s-4-1.79-4-4,1.79-4,4-4,4,1.79,4,4"/>
          <path class="cls-2" d="M611,265c0,2.21-1.79,4-4,4s-4-1.79-4-4,1.79-4,4-4,4,1.79,4,4"/>
          <path class="cls-2" d="M599,277c0,2.21-1.79,4-4,4s-4-1.79-4-4,1.79-4,4-4,4,1.79,4,4"/>
          <path class="cls-2" d="M623,277c0,2.21-1.79,4-4,4s-4-1.79-4-4,1.79-4,4-4,4,1.79,4,4"/>
          <path class="cls-2" d="M599,253c0,2.21-1.79,4-4,4s-4-1.79-4-4,1.79-4,4-4,4,1.79,4,4"/>
          <path class="cls-2" d="M673,303c0,2.21-1.79,4-4,4s-4-1.79-4-4,1.79-4,4-4,4,1.79,4,4"/>
          <path class="cls-2" d="M649,303c0,2.21-1.79,4-4,4s-4-1.79-4-4,1.79-4,4-4,4,1.79,4,4"/>
          <path class="cls-2" d="M673,327c0,2.21-1.79,4-4,4s-4-1.79-4-4,1.79-4,4-4,4,1.79,4,4"/>
          <path class="cls-2" d="M661,315c0,2.21-1.79,4-4,4s-4-1.79-4-4,1.79-4,4-4,4,1.79,4,4"/>
          <path class="cls-2" d="M649,327c0,2.21-1.79,4-4,4s-4-1.79-4-4,1.79-4,4-4,4,1.79,4,4"/>
        </g>
      </g>
    </g>
  </g>
</svg>